<svg xmlns="http://www.w3.org/2000/svg" viewBox="0 0 32 32">
	<path fill="#ffffff" d="M31.071,23.891 L26.449,19.266 C25.828,18.649 24.996,18.308 24.108,18.308 C23.184,18.308 22.311,18.672 21.651,19.333 L19.851,21.132 C18.453,20.355 16.595,19.286 14.665,17.356 C12.738,15.428 11.669,13.575 10.887,12.169 L12.689,10.369 C14.028,9.027 14.055,6.874 12.750,5.569 L8.128,0.947 C7.509,0.326 6.678,-0.016 5.787,-0.016 C4.883,-0.016 4.028,0.332 3.372,0.966 C2.975,1.285 0.983,3.044 0.241,6.671 C-0.799,11.747 1.589,16.631 8.484,23.529 C16.186,31.229 22.761,31.828 24.593,31.828 C24.974,31.828 25.204,31.804 25.266,31.797 C28.858,31.376 30.144,29.781 31.083,28.616 C32.299,27.106 32.295,25.120 31.071,23.891 ZM29.537,27.370 C28.655,28.465 27.821,29.499 25.035,29.826 C25.033,29.826 24.881,29.843 24.593,29.843 C22.954,29.843 17.050,29.286 9.887,22.126 C3.529,15.764 1.298,11.402 2.185,7.069 C2.832,3.905 4.552,2.561 4.618,2.510 L4.678,2.466 L4.730,2.414 C5.017,2.127 5.392,1.969 5.787,1.969 C6.146,1.969 6.479,2.104 6.724,2.350 L11.346,6.973 C11.878,7.505 11.850,8.399 11.284,8.966 L9.247,11.001 L9.214,11.036 C8.683,11.621 8.745,12.411 9.038,12.926 C9.882,14.449 11.037,16.534 13.261,18.759 C15.478,20.976 17.560,22.131 19.079,22.973 C19.231,23.058 19.544,23.201 19.937,23.201 C20.401,23.201 20.827,23.005 21.142,22.647 L23.054,20.736 C23.339,20.450 23.714,20.293 24.108,20.293 C24.468,20.293 24.802,20.428 25.047,20.671 L29.666,25.293 C30.253,25.882 30.011,26.783 29.537,27.370 Z"/>
</svg>