<svg xmlns="http://www.w3.org/2000/svg" viewBox="0 0 32 32">
    <path fill="#ffffff" d="M27.610,-0.009 L2.390,-0.009 C1.067,-0.009 -0.009,1.067 -0.009,2.389 L-0.009,19.473 C-0.009,20.795 1.067,21.870 2.390,21.870 L27.610,21.870 C28.933,21.870 30.009,20.795 30.009,19.473 L30.009,2.389 C30.009,1.067 28.933,-0.009 27.610,-0.009 ZM27.610,2.047 C27.652,2.047 27.693,2.056 27.731,2.070 L15.462,11.471 C15.233,11.646 14.767,11.646 14.538,11.471 L2.269,2.070 C2.307,2.055 2.348,2.046 2.390,2.046 L27.610,2.046 L27.610,2.047 ZM27.610,19.815 L2.390,19.815 C2.204,19.815 2.047,19.658 2.047,19.473 L2.047,4.490 L13.286,13.102 C13.767,13.470 14.383,13.654 15.000,13.654 C15.616,13.654 16.233,13.470 16.713,13.102 L27.953,4.490 L27.953,19.473 C27.953,19.658 27.796,19.815 27.610,19.815 Z" />
</svg>